<svg width="233" height="96" viewBox="0 0 233 96" fill="none" xmlns="http://www.w3.org/2000/svg">
<path d="M117.006 58.2518C119.735 56.2056 122.035 53.6418 123.774 50.7069C125.512 47.772 126.656 44.5234 127.139 41.1466C127.622 37.7697 127.435 34.3309 126.589 31.0262C125.743 27.7216 124.254 24.6159 122.208 21.8865L101.425 37.468L117.006 58.2518Z" fill="#CB997E"/>
<path d="M101.395 37.4871C98.6659 39.5332 96.3663 42.097 94.6277 45.0319C92.8892 47.9668 91.7457 51.2154 91.2626 54.5923C90.7796 57.969 90.9663 61.4083 91.8122 64.7128C92.6582 68.0173 94.1467 71.1233 96.1929 73.8525L116.977 58.2708L101.395 37.4871Z" fill="#CB997E"/>
<path d="M116.996 58.2961C119.042 61.0252 120.531 64.1312 121.377 67.4357C122.223 70.7402 122.409 74.1796 121.926 77.556C121.443 80.9333 120.3 84.1815 118.561 87.1163C116.823 90.0511 114.523 92.6151 111.794 94.6611L96.2121 73.8774L116.996 58.2961Z" fill="#CB997E"/>
<path d="M101.406 37.4427C99.3596 34.7133 97.8711 31.6076 97.0252 28.303C96.1792 24.9983 95.9924 21.5595 96.4755 18.1826C96.9586 14.8057 98.1021 11.5572 99.8406 8.62224C101.579 5.68737 103.879 3.12358 106.608 1.07738L122.19 21.8612L101.406 37.4427Z" fill="#F8F9FA"/>
<path d="M129.989 40.4858V27.0641H167.658V40.4858H164.682L161.833 31.3059L152.717 30.7994V67.0758L158.541 68.4686V71.3808H139.105V68.4686L144.93 67.0758V30.7994L135.75 31.3059L132.964 40.4858H129.989Z" fill="#CB997E"/>
<path d="M172.36 71.3808V68.4686L178.248 67.0758V31.3692L172.36 29.9764V27.0641H191.796V29.9764L185.971 31.3692V67.0758L191.796 68.4686V71.3808H172.36Z" fill="#CB997E"/>
<path d="M219.895 26.1145C224.791 26.1145 228.906 26.8531 232.24 28.3303V40.2958H229.328L226.416 30.926C224.77 30.5462 222.87 30.3562 220.718 30.3562C210.209 30.3562 204.954 36.645 204.954 49.2225C204.954 61.8 209.787 68.0887 219.452 68.0887C220.887 68.0887 222.174 68.0465 223.314 67.9621C224.453 67.8777 225.487 67.7511 226.416 67.5822L230.088 57.5793H233L232.557 69.5448C231.966 69.8825 231.122 70.2201 230.024 70.5578C228.927 70.8954 227.724 71.1909 226.416 71.4441C225.15 71.6973 223.82 71.9084 222.427 72.0772C221.077 72.246 219.832 72.3304 218.692 72.3304C211.559 72.3304 206.157 70.3467 202.485 66.3793C198.813 62.412 196.977 56.693 196.977 49.2225C196.977 41.752 198.876 36.033 202.675 32.0656C206.516 28.0982 212.256 26.1145 219.895 26.1145Z" fill="#CB997E"/>
<path d="M0 71.3808V68.4686L5.82447 67.0758V31.3692L0 29.9764V27.0641H17.9166C20.1957 27.0641 22.2849 27.2541 24.1842 27.6339C26.0835 27.9716 27.9195 28.5836 29.6922 29.4699C31.507 30.314 32.9209 31.6013 33.9339 33.3318C34.9891 35.02 35.5166 37.067 35.5166 39.4728C35.5166 45.0863 32.6044 48.8848 26.7799 50.8685L35.5799 67.1391L41.1512 68.5319V71.3808H29.6288L19.1828 51.8182H13.6115V67.0758L19.436 68.4686V71.3808H0ZM13.6115 48.0196H17.2835C20.3646 48.0196 22.8336 47.2599 24.6907 45.7405C26.59 44.221 27.5396 42.0896 27.5396 39.3462C27.5396 36.645 26.6111 34.598 24.754 33.2052C22.8969 31.7702 20.4068 31.0526 17.2835 31.0526H13.6115V48.0196Z" fill="#CB997E"/>
<path d="M41.3906 29.9764V27.0641H60.8266V29.9764L55.0021 31.3692V54.7937C55.0021 59.0143 56.0362 62.1798 58.1043 64.2901C60.2146 66.4005 63.0424 67.4556 66.5877 67.4556C70.0909 67.4556 72.9187 66.4005 75.0712 64.2901C77.2237 62.1376 78.3 58.9721 78.3 54.7937V31.3692L72.4122 29.9764V27.0641H88.6195V29.9764L82.795 31.3692V54.7937C82.795 57.5793 82.3518 60.0695 81.4655 62.2642C80.6214 64.459 79.4185 66.2949 77.8568 67.7722C76.2952 69.2494 74.417 70.389 72.2223 71.1909C70.0698 71.9506 67.7062 72.3304 65.1316 72.3304C62.5148 72.3304 60.1091 71.9506 57.9143 71.1909C55.7196 70.4312 53.8203 69.3127 52.2165 67.8355C50.6549 66.316 49.4309 64.4801 48.5445 62.3275C47.6582 60.1328 47.215 57.6215 47.215 54.7937V31.3692L41.3906 29.9764Z" fill="#CB997E"/>
</svg>
